# xmcd
#
# Track frame offsets: 
#        150
#        23874
#        62687
#        107402
#        130960
#
# Disc length: 2397 seconds
#
# Revision: 0
# Processed by: cddbd v1.5.2PL0 Copyright (c) Steve Scherf et al.
# Submitted via: ExactAudioCopy v0.95b4
#
DISCID=3a095b05
DTITLE=Jandek - Brooklyn Wednesday CD2
DYEAR=2007
DGENRE=Blues
TTITLE0=All I Want
TTITLE1=Lonely World
TTITLE2=Change My Brain
TTITLE3=I'll Send a Thought Out Floating
TTITLE4=I Love You
EXTD=
EXTT0=
EXTT1=
EXTT2=
EXTT3=
EXTT4=
PLAYORDER=
